<svg xmlns="http://www.w3.org/2000/svg" width="277.426" height="267.317" viewBox="0 0 277.426 267.317">
  <g id="Goal" transform="translate(-78.996 -80.458)">
    <g id="Group_8566" data-name="Group 8566" transform="translate(78.996 80.458)">
      <path id="Path_2119" data-name="Path 2119" d="M410.877,616.365c0,11-13.572,19.925-30.313,19.925s-30.314-8.921-30.314-19.925Z" transform="translate(-240.215 -368.973)"/>
      <path id="Path_2120" data-name="Path 2120" d="M589.025,514.424a6.883,6.883,0,0,1-3.677-1.063l-28.94-18.2a6.918,6.918,0,1,1,7.367-11.713l28.941,18.2a6.92,6.92,0,0,1-3.69,12.776Z" transform="translate(-337.563 -304.697)"/>
      <path id="Path_2121" data-name="Path 2121" d="M587.9,367.629a6.919,6.919,0,0,1-1.367-13.7l33.507-6.794a6.918,6.918,0,1,1,2.75,13.561l-33.508,6.794A6.945,6.945,0,0,1,587.9,367.629Z" transform="translate(-350.905 -239.749)"/>
      <path id="Path_2122" data-name="Path 2122" d="M522.436,232.845a6.92,6.92,0,0,1-5.758-10.746l18.909-28.484a6.918,6.918,0,0,1,11.528,7.653l-18.909,28.484A6.911,6.911,0,0,1,522.436,232.845Z" transform="translate(-319.502 -164.683)"/>
      <path id="Path_2123" data-name="Path 2123" d="M401.972,188.884a6.918,6.918,0,0,1-6.917-6.851l-.329-34.188a6.918,6.918,0,1,1,13.836-.133l.329,34.187a6.919,6.919,0,0,1-6.851,6.985Z" transform="translate(-261.552 -140.858)"/>
      <path id="Path_2124" data-name="Path 2124" d="M182.271,514.005a6.919,6.919,0,0,1-3.69-12.776l28.941-18.2a6.919,6.919,0,0,1,7.368,11.713l-28.941,18.2A6.888,6.888,0,0,1,182.271,514.005Z" transform="translate(-156.308 -304.497)"/>
      <path id="Path_2125" data-name="Path 2125" d="M179.189,367.209a6.979,6.979,0,0,1-1.382-.139L144.3,360.276a6.918,6.918,0,0,1,2.75-13.561l33.507,6.794a6.919,6.919,0,0,1-1.367,13.7Z" transform="translate(-138.754 -239.547)"/>
      <path id="Path_2126" data-name="Path 2126" d="M258.111,232.426a6.912,6.912,0,0,1-5.771-3.094l-18.909-28.484A6.918,6.918,0,0,1,244.96,193.2l18.909,28.485a6.92,6.92,0,0,1-5.757,10.746Z" transform="translate(-183.62 -164.482)"/>
      <path id="Path_2127" data-name="Path 2127" d="M334.484,258.311a78.419,78.419,0,0,0-38.376,146.8v26.059a18.84,18.84,0,0,0,18.819,18.819H356.07a18.839,18.839,0,0,0,18.819-18.819V403.93a78.417,78.417,0,0,0-40.4-145.619Zm29.069,134.216a7.75,7.75,0,0,0-4.162,6.869v6.271H311.607v-5.247a7.75,7.75,0,0,0-4.386-6.982,62.92,62.92,0,1,1,56.333-.911Z" transform="translate(-195.036 -197.204)"/>
      <g id="Group_8565" data-name="Group 8565" transform="translate(91.502 81.235)">
        <g id="Group_8564" data-name="Group 8564" transform="translate(0 8.478)">
          <g id="Group_8563" data-name="Group 8563">
            <path id="Path_2128" data-name="Path 2128" d="M414.911,363.435a50.142,50.142,0,1,1-50.141-50.141A50.141,50.141,0,0,1,414.911,363.435Z" transform="translate(-314.628 -313.294)" fill="#ff9c46"/>
            <circle id="Ellipse_9" data-name="Ellipse 9" cx="40.16" cy="40.16" r="40.16" transform="translate(7.231 12.935) rotate(-4.073)" fill="#fff"/>
            <circle id="Ellipse_10" data-name="Ellipse 10" cx="31.608" cy="31.608" r="31.608" transform="translate(17.561 80.746) rotate(-88.21)" fill="#ff9c46"/>
            <path id="Path_2129" data-name="Path 2129" d="M412.741,389.116a22.29,22.29,0,1,1-22.289-22.29A22.29,22.29,0,0,1,412.741,389.116Z" transform="translate(-340.31 -338.975)" fill="#fff"/>
            <path id="Path_2130" data-name="Path 2130" d="M412.092,396.789a13.968,13.968,0,1,1-13.968-13.968A13.969,13.969,0,0,1,412.092,396.789Z" transform="translate(-347.983 -346.648)" fill="#ff9c46"/>
            <path id="Path_2131" data-name="Path 2131" d="M411.41,404.86a5.216,5.216,0,1,1-5.215-5.215A5.215,5.215,0,0,1,411.41,404.86Z" transform="translate(-356.053 -354.719)" fill="#fff"/>
          </g>
        </g>
        <path id="Path_2132" data-name="Path 2132" d="M451.628,318.008h6.151L470.2,305.7h-8.59L461.378,297l-12.536,12.3.349,6.615L411,353.259v3.051h3.307" transform="translate(-360.862 -297)" fill="#d56300"/>
      </g>
    </g>
  </g>
</svg>
