<?xml version="1.0" standalone="no"?>
<!DOCTYPE svg PUBLIC "-//W3C//DTD SVG 20010904//EN"
 "http://www.w3.org/TR/2001/REC-SVG-20010904/DTD/svg10.dtd">
<svg version="1.0" xmlns="http://www.w3.org/2000/svg"
 width="300.000000pt" height="291.000000pt" viewBox="0 0 300.000000 291.000000"
 preserveAspectRatio="xMidYMid meet">
<metadata>
Created by potrace 1.10, written by Peter Selinger 2001-2011
</metadata>
<g transform="translate(0.000000,291.000000) scale(0.100000,-0.100000)"
fill="#0b5394" stroke="none">
<path d="M269 2896 c17 -9 20 -15 11 -21 -6 -4 -17 -2 -23 4 -14 14 -50 15
-42 1 3 -5 -1 -10 -9 -10 -9 0 -16 7 -16 15 0 8 -6 15 -14 15 -8 0 -21 -7 -30
-15 -19 -19 -42 -19 -50 1 -6 17 -45 11 -58 -10 -6 -8 -8 -7 -8 2 0 17 -17 15
-24 -4 -5 -14 13 -15 159 -12 152 3 165 2 165 -14 0 -10 -7 -18 -16 -18 -14 0
-15 -7 -10 -37 3 -21 9 -49 13 -62 5 -20 3 -23 -11 -18 -10 4 -80 7 -156 7
l-139 0 -4 33 c-3 17 -4 -49 -1 -148 4 -198 18 -307 39 -299 15 6 25 -26 25
-83 0 -41 -15 -58 -26 -29 -7 19 -44 8 -44 -14 0 -13 11 -19 51 -23 55 -7 92
-26 108 -56 14 -26 31 -179 31 -285 0 -80 2 -87 17 -81 10 3 60 11 112 16 129
14 127 16 124 -154 -1 -73 -7 -186 -12 -252 -46 -541 -45 -520 -33 -663 7 -75
14 -199 17 -274 3 -76 10 -190 15 -255 5 -65 10 -126 10 -135 0 -10 4 -18 8
-18 4 0 3 66 -4 147 -6 82 -15 229 -19 328 -3 99 -10 207 -15 240 -5 35 -5
100 0 155 5 52 14 149 20 215 6 66 17 174 25 240 8 66 19 178 24 248 11 161
12 162 124 162 45 0 98 -3 117 -7 l35 -8 -9 166 c-10 191 -3 233 41 253 23 11
301 27 531 30 l33 1 -20 28 c-15 21 -20 48 -23 120 -6 132 15 118 25 -18 2
-25 4 14 5 85 0 73 4 129 10 128 5 -1 9 4 9 12 0 8 -4 12 -8 10 -19 -12 -19
92 0 105 5 3 11 15 15 27 6 19 30 43 94 94 6 5 12 7 12 3 0 -3 6 -1 13 5 8 6
16 9 18 7 2 -2 23 -1 46 3 23 5 45 6 47 3 3 -3 29 -6 58 -7 80 -3 178 -54 178
-92 0 -7 5 -13 11 -13 7 0 8 7 4 18 -4 9 -9 24 -12 34 -3 9 -15 19 -27 22 -13
3 -28 18 -35 33 -9 20 -15 23 -20 14 -5 -8 -11 -9 -14 -4 -6 10 -69 16 -167
15 -76 -1 -110 -8 -142 -32 -15 -11 -32 -20 -38 -20 -5 0 -10 -6 -10 -14 0 -7
-7 -19 -16 -27 -20 -17 -50 -76 -57 -116 -3 -17 -3 -53 1 -80 5 -26 5 -59 1
-73 -4 -14 -7 -21 -8 -17 -1 5 -8 2 -16 -6 -13 -13 -13 -57 1 -79 3 -4 1 -16
-5 -26 -6 -11 -6 -33 -1 -55 5 -24 4 -40 -4 -46 -14 -12 -98 -17 -114 -7 -7 4
-19 3 -27 -4 -11 -9 -18 -7 -34 9 -19 19 -21 19 -21 3 0 -15 -10 -18 -69 -19
l-68 -2 -7 52 c-3 29 -6 111 -7 182 -1 72 -5 141 -10 155 -5 15 -6 -63 -3
-194 4 -154 2 -216 -5 -211 -7 4 -11 69 -11 185 0 108 -4 181 -10 185 -6 3
-10 11 -10 16 0 6 5 7 10 4 6 -3 10 4 10 16 0 22 0 22 -15 3 -16 -22 -20 -58
-5 -49 6 4 10 -5 9 -22 -1 -19 -3 -22 -6 -9 -4 14 -7 15 -13 6 -10 -16 -1 -52
11 -44 5 3 9 -2 9 -11 0 -9 -4 -13 -10 -10 -6 4 -10 -9 -10 -32 0 -28 3 -34
10 -23 7 11 10 0 10 -37 0 -33 -4 -53 -11 -53 -8 0 -8 -4 -1 -12 13 -17 8 -86
-8 -101 -10 -9 -13 -9 -17 0 -3 9 -10 9 -24 3 -10 -6 -28 -15 -39 -20 -12 -6
-25 -8 -30 -5 -6 4 -10 -1 -10 -9 0 -25 -20 -19 -21 7 -1 12 -6 0 -11 -28 -7
-40 -11 -230 -6 -295 5 -59 0 -66 -47 -69 -57 -3 -69 21 -55 101 4 21 4 41 -1
43 -4 3 -8 42 -8 88 0 45 -3 126 -6 181 -5 74 -4 96 5 91 9 -6 9 -2 1 12 -12
23 -15 77 -7 113 6 21 5 22 -3 5 -7 -14 -10 7 -11 75 -1 52 -4 111 -5 130 -3
36 10 64 26 54 5 -3 9 0 9 6 0 7 7 10 15 7 8 -4 17 -2 20 3 4 6 28 10 56 10
37 0 49 4 49 15 0 8 -4 15 -10 15 -5 0 -10 18 -10 40 0 34 3 40 21 40 16 0 19
4 13 18 -4 9 -9 34 -12 55 -3 26 -9 37 -21 37 -12 0 -16 -11 -17 -47 -2 -63
-19 -136 -34 -141 -6 -2 -19 -12 -28 -21 -13 -12 -28 -15 -62 -11 -25 3 -44 8
-42 13 1 4 2 52 2 107 0 67 -4 100 -11 100 -8 0 -9 -31 -5 -107 4 -58 9 -109
11 -113 2 -3 11 -127 19 -276 9 -148 17 -292 19 -321 2 -29 0 -50 -4 -48 -4 3
-3 -12 2 -33 5 -20 9 -83 9 -139 l0 -103 -28 0 c-15 0 -42 -4 -60 -9 -29 -9
-37 -6 -66 20 -19 16 -36 25 -38 19 -1 -5 -33 -11 -70 -13 -55 -3 -68 -1 -71
12 -4 13 -5 13 -6 -1 0 -10 -7 -18 -15 -18 -10 0 -15 25 -21 98 -7 96 -11 127
-36 252 -10 54 -14 61 -20 40 -6 -22 -14 -10 -10 14 1 5 -7 6 -18 3 -27 -7
-40 11 -45 60 -5 50 3 63 38 67 15 2 34 9 42 18 12 12 28 13 82 6 37 -5 75
-10 85 -11 19 -1 25 -18 30 -87 3 -41 4 -39 5 13 1 31 7 57 12 57 6 0 10 -26
11 -57 1 -70 8 -135 16 -143 3 -3 2 46 -2 109 -6 91 -11 117 -26 132 -15 15
-19 34 -19 86 0 36 -3 63 -7 60 -11 -12 -15 -115 -4 -121 20 -13 -1 -36 -33
-35 l-31 1 30 13 c27 13 17 14 -112 15 -84 0 -144 -4 -148 -10 -3 -5 -11 -10
-16 -10 -6 0 -8 4 -5 9 3 5 -1 78 -9 162 -8 85 -15 155 -15 157 0 1 9 -2 19
-8 11 -5 80 -10 155 -10 120 0 135 2 138 18 2 9 7 -14 11 -53 10 -95 26 -116
19 -26 -3 49 -1 71 7 71 6 0 11 11 11 25 0 16 -6 25 -15 25 -12 0 -15 13 -15
58 0 31 4 63 9 71 17 27 -19 60 -64 60 -39 0 -39 0 -16 -13z m-99 -546 c0 -5
-25 -10 -56 -10 -34 0 -53 4 -49 10 3 6 28 10 56 10 27 0 49 -4 49 -10z"/>
<path d="M360 2895 c0 -8 5 -15 10 -15 6 0 10 7 10 15 0 8 -4 15 -10 15 -5 0
-10 -7 -10 -15z"/>
<path d="M570 2815 c0 -94 0 -95 24 -95 13 0 26 -6 29 -12 2 -7 7 -10 11 -7 3
3 -3 17 -14 32 -22 28 -27 67 -7 67 6 0 4 5 -6 11 -15 9 -17 18 -11 55 5 37 4
44 -10 44 -14 0 -16 -14 -16 -95z"/>
<path d="M870 2816 c0 -71 4 -97 15 -106 13 -11 15 0 15 94 0 88 -3 106 -15
106 -12 0 -15 -17 -15 -94z"/>
<path d="M1070 2830 c-3 -217 -2 -291 4 -297 8 -8 9 30 7 190 -1 77 2 127 8
127 5 0 12 -17 14 -37 2 -23 4 -12 5 30 1 42 -2 67 -9 67 -6 0 -8 -9 -4 -20 9
-27 -3 -25 -15 3 -6 16 -9 -1 -10 -63z"/>
<path d="M1361 2824 c2 -73 4 -83 16 -71 8 8 17 45 20 85 6 69 5 72 -16 72
-20 0 -21 -4 -20 -86z"/>
<path d="M1580 2888 c0 -19 2 -20 10 -8 13 19 13 30 0 30 -5 0 -10 -10 -10
-22z"/>
<path d="M1859 2893 c-2 -68 -2 -144 1 -178 3 -39 3 -38 10 15 12 82 12 180 0
180 -5 0 -10 -8 -11 -17z"/>
<path d="M1940 2840 c0 -41 -3 -85 -6 -97 -4 -13 -2 -23 3 -23 13 0 24 146 13
174 -6 15 -9 -1 -10 -54z"/>
<path d="M2086 2870 c-8 -53 -20 -346 -13 -340 2 3 8 55 11 115 4 61 11 139
16 175 12 82 12 90 1 90 -5 0 -11 -18 -15 -40z"/>
<path d="M2317 2891 c-3 -12 -1 -24 4 -27 5 -3 9 0 9 7 0 7 3 9 7 5 5 -4 -1
-15 -12 -23 -14 -10 -16 -17 -8 -20 9 -3 10 -10 3 -24 -6 -10 -8 -19 -4 -19 3
0 1 -7 -6 -15 -9 -10 -9 -15 -1 -15 6 0 11 -15 11 -33 0 -52 -22 -147 -33
-147 -7 0 -7 -4 1 -12 13 -13 17 -88 4 -88 -4 0 -6 -21 -3 -46 2 -25 -2 -51
-8 -57 -13 -13 -15 -30 -2 -22 6 3 6 -6 1 -25 -5 -19 -5 -41 0 -56 12 -31 17
-30 19 4 0 15 3 41 5 57 3 17 7 64 11 105 7 89 14 149 20 170 2 8 7 60 10 115
4 55 10 119 14 143 7 33 5 42 -5 42 -8 0 -14 -6 -14 -12 0 -10 -2 -10 -9 0 -6
10 -10 9 -14 -7z"/>
<path d="M2570 2904 c0 -35 71 -74 97 -53 22 19 10 25 -48 28 -23 1 -30 5 -25
16 3 9 0 15 -9 15 -8 0 -15 -3 -15 -6z"/>
<path d="M2700 2887 c0 -13 -5 -28 -12 -35 -17 -17 -2 -28 17 -12 8 7 15 23
15 35 0 14 7 25 18 28 10 3 6 5 -10 6 -23 1 -28 -3 -28 -22z"/>
<path d="M2788 2898 c9 -9 15 -9 24 0 9 9 7 12 -12 12 -19 0 -21 -3 -12 -12z"/>
<path d="M2841 2894 c0 -11 -4 -24 -8 -28 -5 -4 -8 -20 -9 -34 -1 -35 -12 -94
-20 -117 -5 -12 -3 -16 6 -13 14 4 44 168 36 198 -2 9 -4 7 -5 -6z"/>
<path d="M2877 2896 c-4 -10 -7 -34 -6 -54 l1 -37 9 45 c10 48 7 75 -4 46z"/>
<path d="M913 2825 c0 -38 2 -53 4 -32 2 20 2 52 0 70 -2 17 -4 1 -4 -38z"/>
<path d="M2732 2856 c-9 -21 -8 -23 9 -19 21 6 23 11 11 31 -6 9 -12 6 -20
-12z"/>
<path d="M368 2843 c-2 -5 -1 -33 3 -63 l6 -55 1 63 c2 57 -1 74 -10 55z"/>
<path d="M2580 2832 c0 -11 6 -22 14 -25 9 -3 12 -15 9 -31 -4 -17 -1 -26 7
-26 8 0 10 -9 6 -25 -6 -24 -4 -25 39 -25 25 0 45 -4 45 -10 0 -5 7 -10 15
-10 25 0 17 16 -22 46 -21 15 -40 29 -42 31 -8 6 32 43 46 43 7 0 13 4 13 9 0
17 -51 -2 -70 -27 -11 -13 -21 -23 -21 -21 -1 2 -3 16 -5 32 -1 15 -10 34 -18
43 -15 14 -16 14 -16 -4z"/>
<path d="M83 2833 c37 -2 96 -2 130 0 34 2 4 3 -68 3 -72 0 -99 -1 -62 -3z"/>
<path d="M2570 2772 c0 -10 -4 -22 -10 -28 -5 -5 -15 -37 -21 -69 -6 -33 -14
-64 -18 -70 -4 -5 -6 -21 -5 -35 1 -14 -3 -30 -8 -37 -5 -6 -8 -20 -6 -30 1
-10 -1 -24 -6 -32 -6 -10 -5 -12 2 -7 7 4 12 2 12 -3 0 -6 -4 -11 -9 -11 -5 0
-7 -9 -4 -20 3 -13 0 -20 -8 -20 -11 0 -11 -2 -1 -8 14 -10 6 -42 -12 -42 -7
0 -7 -3 1 -8 7 -5 16 -30 19 -58 4 -37 3 -45 -5 -34 -9 12 -10 9 -5 -14 6 -24
4 -28 -9 -23 -9 3 -17 2 -19 -4 -2 -5 -36 -11 -76 -13 -67 -3 -74 -2 -82 18
-5 11 -9 15 -9 9 -1 -7 -9 -13 -19 -13 -10 0 -22 -3 -25 -7 -4 -3 -43 -6 -88
-6 -82 0 -104 9 -92 40 3 7 0 13 -5 13 -6 0 -12 -15 -14 -32 l-3 -33 -72 0
c-64 -1 -72 1 -77 20 -3 11 -1 21 4 23 6 2 7 15 4 28 -4 15 -2 24 5 24 9 0 9
5 1 20 -7 14 -7 20 0 20 5 0 10 21 10 46 0 29 -4 43 -10 39 -6 -4 -17 -1 -25
5 -12 10 -15 35 -14 107 1 71 -3 99 -14 110 -12 13 -14 8 -9 -36 3 -31 0 -56
-7 -65 -8 -10 -9 -16 -1 -21 5 -3 10 -11 10 -16 0 -6 -4 -8 -9 -5 -5 4 -7 -4
-3 -16 3 -14 2 -19 -6 -14 -7 4 -12 26 -12 49 0 58 -32 97 -80 97 -208 0 -340
-12 -340 -31 0 -5 -6 -8 -12 -6 -9 1 -12 -11 -10 -40 2 -26 -3 -51 -13 -66
-15 -24 -15 -24 11 -19 23 4 25 9 22 38 -2 19 -1 34 2 34 3 0 10 10 15 23 9
20 18 22 95 25 47 1 121 6 165 11 44 4 86 6 93 3 15 -5 26 -45 25 -89 0 -21 4
-33 13 -33 29 0 44 -43 46 -130 l1 -85 6 77 c6 73 14 99 27 85 4 -3 1 -50 -5
-104 -10 -81 -15 -101 -34 -115 -26 -21 -50 -20 363 -19 483 1 790 12 790 28
0 11 -4 11 -21 3 -11 -7 -23 -9 -26 -7 -2 3 1 41 8 86 8 54 17 81 26 81 10 0
13 18 12 73 l-1 72 -8 -55 c-5 -30 -6 -58 -4 -62 3 -5 1 -8 -5 -8 -11 0 -41
-56 -41 -78 0 -7 -7 -29 -15 -47 -16 -32 -17 -32 -106 -39 -49 -4 -93 -5 -98
-2 -4 3 -2 33 5 68 17 82 36 214 36 256 0 17 4 32 8 32 11 0 19 49 9 56 -5 3
-9 11 -9 17 0 8 3 8 9 -1 7 -11 10 -10 15 3 9 24 8 25 -13 25 -15 0 -20 -10
-26 -52 -5 -39 -9 -48 -14 -33 -7 17 -8 17 -13 -7 -3 -15 -1 -31 4 -36 5 -5 8
-25 5 -43 l-4 -34 -1 38 c-3 50 -18 48 -19 -3 0 -22 3 -40 8 -40 5 0 9 -10 8
-22 0 -21 -1 -22 -8 -3 -6 15 -9 10 -15 -25 -3 -25 -9 -61 -13 -80 -3 -19 -2
-32 1 -28 4 3 10 21 13 40 9 58 16 45 8 -17 -3 -33 -8 -69 -9 -80 -1 -11 -7
-19 -14 -17 -7 1 -12 -3 -12 -8 0 -11 -59 -8 -78 4 -5 3 -12 1 -14 -6 -3 -7
-21 -13 -41 -15 -31 -2 -37 1 -37 19 0 18 47 406 55 453 13 81 17 115 11 115
-3 0 -6 -8 -6 -18z"/>
<path d="M773 2763 c15 -2 39 -2 55 0 15 2 2 4 -28 4 -30 0 -43 -2 -27 -4z"/>
<path d="M850 2708 c0 -15 -9 -18 -47 -18 -40 -1 -45 -3 -29 -12 10 -6 35 -11
55 -12 33 -1 36 -4 42 -36 l6 -35 11 28 c16 38 15 67 -3 67 -7 0 -19 8 -24 18
-10 16 -10 16 -11 0z"/>
<path d="M1930 2648 c0 -34 2 -59 4 -57 9 9 13 119 5 119 -5 0 -9 -28 -9 -62z"/>
<path d="M2834 2661 c17 -11 33 -18 38 -15 14 9 -19 34 -44 34 -22 0 -22 -1 6
-19z"/>
<path d="M2407 2592 c-5 -71 -4 -92 8 -81 7 8 12 150 5 154 -4 2 -10 -30 -13
-73z"/>
<path d="M386 2520 c3 -80 10 -152 15 -160 7 -10 8 24 4 100 -11 182 -25 228
-19 60z"/>
<path d="M644 2540 c0 -69 1 -97 3 -62 2 34 2 90 0 125 -2 34 -3 6 -3 -63z"/>
<path d="M1240 2610 c0 -16 4 -30 8 -30 5 0 7 14 4 30 -2 17 -6 30 -8 30 -2 0
-4 -13 -4 -30z"/>
<path d="M1920 2535 c0 -27 2 -46 5 -43 8 8 9 77 2 85 -4 3 -7 -15 -7 -42z"/>
<path d="M246 2514 c-4 -20 -5 -38 -3 -40 3 -3 8 11 11 32 4 20 5 38 3 40 -3
3 -8 -11 -11 -32z"/>
<path d="M2064 2506 c-3 -8 -4 -31 -2 -52 3 -36 4 -35 8 14 5 53 4 63 -6 38z"/>
<path d="M2394 2475 c-3 -14 -4 -29 0 -32 3 -4 6 3 6 15 0 11 5 22 12 24 9 3
9 6 0 12 -7 4 -14 -3 -18 -19z"/>
<path d="M1413 2387 c-34 -15 -28 -27 12 -27 19 0 35 -4 35 -9 0 -5 3 -18 7
-28 6 -16 5 -16 -10 -4 -9 7 -14 18 -11 23 4 6 -2 8 -11 6 -30 -5 -28 -25 4
-36 16 -6 32 -7 36 -4 3 4 10 1 14 -6 11 -19 64 -4 57 15 -4 8 -1 11 5 7 6 -3
9 -15 6 -25 -3 -10 -1 -22 5 -25 5 -4 8 7 6 27 -3 32 -6 35 -53 46 -35 8 -41
12 -20 11 59 -1 76 2 70 12 -3 6 -21 10 -38 10 -18 0 -46 4 -62 9 -18 5 -39 4
-52 -2z"/>
<path d="M1715 2389 c-16 -5 -43 -10 -60 -12 -16 -1 -31 -8 -31 -15 -1 -6 -3
-15 -4 -19 -3 -12 1 -57 7 -66 3 -4 11 -3 18 3 8 7 20 9 27 5 7 -4 5 0 -4 8
-24 19 -23 26 4 19 14 -3 19 -1 14 6 -3 6 -2 13 3 16 5 3 12 -2 15 -11 4 -9 1
-20 -6 -25 -8 -5 -1 -8 19 -8 17 0 38 7 47 15 8 8 20 15 27 15 9 0 8 4 -1 15
-7 8 -28 15 -47 15 -23 0 -32 4 -27 11 4 7 24 9 50 6 46 -5 57 5 25 23 -23 12
-35 12 -76 -1z m43 -61 c-2 -6 -10 -14 -16 -16 -7 -2 -10 2 -6 12 7 18 28 22
22 4z"/>
<path d="M653 2285 c0 -27 2 -38 4 -22 2 15 2 37 0 50 -2 12 -4 0 -4 -28z"/>
<path d="M1640 2220 c0 -11 3 -19 8 -17 7 2 12 -6 12 -22 0 -15 -80 -25 -93
-12 -16 16 -24 14 -30 -8 -6 -23 31 -33 85 -25 24 4 38 1 47 -10 13 -15 10
-16 -30 -12 -33 4 -38 3 -19 -3 21 -8 18 -9 -21 -10 -25 -1 -49 2 -53 6 -4 4
-17 8 -29 8 -14 0 -21 5 -19 15 1 10 -2 9 -13 -4 -8 -11 -15 -16 -16 -10 0 5
-5 -2 -10 -15 -12 -30 -5 -38 15 -18 9 9 27 14 43 11 16 -2 55 -4 88 -4 54 0
57 -1 40 -15 -11 -8 -15 -15 -9 -15 6 0 17 7 24 15 7 8 16 12 21 9 5 -3 9 0 9
6 0 6 3 9 8 7 4 -3 7 6 7 19 0 13 -3 25 -7 25 -5 1 -14 2 -20 3 -14 2 -12 27
3 37 15 9 -8 59 -26 59 -8 0 -15 -9 -15 -20z"/>
<path d="M1492 2203 c-33 -48 -37 -57 -21 -48 27 16 59 50 59 63 0 21 -18 13
-38 -15z"/>
<path d="M372 2130 c0 -19 2 -27 5 -17 2 9 2 25 0 35 -3 9 -5 1 -5 -18z"/>
<path d="M1306 2129 c-22 -16 -63 -38 -93 -49 -29 -11 -83 -35 -120 -53 -38
-19 -88 -42 -113 -51 -77 -29 -91 -45 -106 -122 -14 -70 -25 -117 -43 -189
-24 -96 -40 -359 -33 -555 11 -320 8 -405 -17 -484 -21 -64 -21 -74 -10 -139
10 -55 10 -72 1 -75 -14 -4 -17 -42 -3 -42 14 0 29 -49 41 -135 14 -95 65
-235 86 -235 19 0 18 6 -16 105 -16 48 -32 108 -35 134 -4 25 -12 69 -20 96
-11 42 -28 176 -27 210 1 6 6 28 12 50 6 22 13 51 16 65 2 14 7 32 10 39 3 8
7 35 10 60 3 26 14 55 25 67 24 26 24 30 -7 66 -17 22 -24 40 -22 62 2 17 7
29 13 26 5 -3 9 -10 7 -17 -4 -20 15 -24 29 -5 13 16 13 16 -5 2 -18 -14 -18
-13 -12 8 5 14 3 22 -4 22 -8 0 -6 9 5 26 9 15 11 23 4 19 -8 -6 -10 -4 -4 6
8 12 6 12 -8 0 -9 -7 -17 -20 -17 -27 0 -8 -7 -14 -15 -14 -17 0 -22 55 -5 65
5 3 7 11 5 18 -6 15 12 44 21 34 4 -3 1 -13 -6 -22 -16 -19 -3 -19 30 0 32 18
50 19 50 1 0 -8 -14 -17 -30 -21 -25 -5 -29 -10 -20 -20 9 -11 15 -10 32 7 11
11 22 17 25 14 3 -3 -6 -15 -20 -27 -29 -22 -35 -39 -14 -39 12 0 67 52 67 64
0 3 -6 6 -13 6 -7 0 -13 9 -14 20 -1 12 4 20 13 20 8 0 12 -4 9 -10 -8 -12 13
-12 40 1 19 9 19 9 -2 5 -19 -3 -21 -1 -14 12 18 33 129 132 134 119 2 -6 4
-1 4 13 0 23 -5 20 -58 -35 -44 -46 -75 -68 -124 -88 -62 -26 -67 -26 -91 -11
-13 9 -23 22 -21 28 2 6 0 23 -4 38 -4 15 -4 27 -1 26 4 -1 15 2 25 7 15 6 17
15 12 45 -5 29 -3 39 10 44 14 5 12 10 -11 33 -25 25 -26 30 -20 97 8 100 16
128 32 122 8 -3 14 0 14 7 0 8 4 7 11 -3 8 -11 12 -12 16 -2 2 6 9 9 15 6 6
-4 8 7 5 29 -6 45 5 66 26 48 30 -24 26 7 -4 33 l-30 27 7 -26 c4 -17 2 -25
-6 -25 -9 0 -11 -11 -7 -35 3 -19 3 -35 -1 -36 -4 0 -17 -2 -30 -5 -25 -4 -39
16 -26 38 4 7 7 29 5 48 -2 38 19 68 40 55 8 -5 9 -1 5 14 -3 11 -9 31 -12 43
-5 17 -3 20 12 14 17 -5 17 -5 3 7 -15 11 -15 16 0 65 9 29 20 50 24 46 4 -4
15 0 24 8 10 8 27 18 38 20 11 3 28 9 37 13 13 5 16 2 12 -17 -5 -20 -4 -21 6
-5 6 9 18 17 27 17 9 0 36 10 61 21 33 17 43 26 39 40 -3 11 -1 16 5 13 5 -3
20 4 33 16 13 12 28 19 34 15 6 -3 25 3 41 15 16 12 34 19 39 15 6 -3 20 -27
33 -53 12 -26 34 -65 47 -87 13 -22 24 -42 24 -45 0 -10 50 -85 65 -97 9 -7
23 -13 31 -13 9 0 1 14 -23 39 -21 22 -36 44 -32 49 3 6 2 12 -2 14 -11 4 -72
133 -72 152 0 8 -5 18 -10 21 -6 4 -20 26 -33 50 l-22 44 -39 -30z m-458 -849
c-2 -16 0 -31 6 -34 6 -2 2 -4 -10 -3 -21 1 -22 10 -8 55 7 24 16 11 12 -18z
m11 -441 c-14 -27 -19 -24 -19 12 0 27 2 30 15 19 11 -9 12 -17 4 -31z"/>
<path d="M1825 2130 c-4 -11 -18 -34 -32 -51 -36 -43 -76 -163 -74 -222 2 -36
-4 -54 -22 -80 -28 -36 -77 -131 -77 -147 0 -20 15 -10 34 23 11 18 21 27 23
20 3 -7 -5 -29 -17 -48 -12 -19 -18 -35 -13 -35 6 0 16 11 23 25 7 14 16 25
19 25 4 0 6 17 5 38 -1 20 6 57 16 82 10 25 24 74 30 110 7 36 18 77 26 92 8
15 14 36 14 47 0 11 9 26 20 34 11 8 18 16 15 19 -12 12 25 29 47 22 13 -4 26
-7 31 -6 4 1 7 -2 7 -8 0 -5 6 -10 13 -10 7 0 28 -8 47 -18 20 -9 48 -16 63
-15 19 1 27 -3 27 -14 0 -9 6 -13 14 -10 8 3 33 -3 55 -14 22 -10 45 -19 51
-19 5 0 10 -7 10 -15 0 -8 6 -14 13 -12 13 2 15 -22 4 -68 -5 -19 -4 -25 1
-17 7 11 10 10 16 -3 3 -9 6 -25 6 -36 0 -10 4 -19 9 -19 8 0 19 -26 26 -60 1
-8 10 -46 19 -83 18 -75 22 -267 6 -267 -6 0 -6 -9 0 -26 16 -41 12 -104 -6
-111 -12 -4 -13 -7 -3 -14 8 -4 10 -11 6 -15 -3 -4 -14 -1 -24 7 -15 12 -16
12 -10 -4 4 -10 1 -27 -6 -38 -10 -16 -9 -21 3 -29 20 -12 33 -1 19 16 -9 11
-9 18 -1 26 19 19 25 1 16 -44 -7 -33 -14 -42 -27 -40 -9 2 -17 -1 -17 -7 0
-5 -14 -12 -30 -16 -17 -4 -28 -11 -25 -15 3 -5 -16 -7 -42 -4 -26 2 -50 9
-51 14 -4 12 -22 3 -22 -11 0 -5 12 -9 26 -9 22 0 25 -2 14 -15 -10 -12 -10
-15 4 -15 9 0 16 5 16 11 0 12 21 9 94 -9 21 -6 35 -7 30 -2 -5 4 -18 10 -28
12 -11 1 -21 8 -23 14 -5 15 54 37 62 23 4 -5 10 -7 14 -5 4 3 8 -24 9 -60 2
-67 -17 -124 -41 -124 -8 0 -7 -4 3 -10 12 -8 12 -12 2 -18 -18 -12 -1 -53 47
-110 21 -26 52 -71 67 -100 16 -30 37 -70 48 -89 16 -31 17 -42 7 -87 -16 -72
-18 -83 -26 -156 -6 -51 -53 -239 -80 -317 -2 -7 4 -13 13 -13 29 0 93 220
108 368 3 39 11 72 16 72 6 0 7 11 4 25 -4 15 -2 25 4 25 20 0 0 103 -24 126
-13 11 -28 35 -34 54 -13 35 -87 139 -109 153 -19 12 -16 28 15 88 25 47 28
61 23 109 -3 30 -3 118 1 195 14 275 1 451 -42 567 -10 29 -24 84 -31 122 -7
40 -18 74 -29 83 -18 15 -159 68 -220 82 -34 8 -125 53 -144 72 -15 14 -24 11
-31 -11z"/>
<path d="M2732 2100 c0 -8 4 -26 8 -40 6 -20 8 -21 8 -5 0 11 -3 29 -8 40 -5
12 -8 14 -8 5z"/>
<path d="M1545 2050 c-11 -4 -8 -8 13 -16 22 -8 37 -8 58 1 l29 12 -42 4 c-23
3 -49 2 -58 -1z"/>
<path d="M1465 2000 c32 -34 80 -52 127 -50 49 3 52 2 37 -17 -13 -16 -12 -17
3 -5 93 73 122 121 39 65 -37 -25 -46 -27 -106 -24 -27 2 -52 12 -77 32 -48
38 -60 37 -23 -1z"/>
<path d="M102 1980 c0 -19 2 -27 5 -17 2 9 2 25 0 35 -3 9 -5 1 -5 -18z"/>
<path d="M1067 1912 c-18 -19 -23 -31 -17 -42 5 -9 5 -19 -1 -26 -7 -8 -6 -14
1 -19 6 -4 8 -20 4 -41 -4 -22 -2 -34 5 -34 6 0 11 -9 11 -19 0 -23 16 -36 25
-22 3 6 12 8 20 4 8 -3 15 0 15 6 0 6 -4 11 -10 11 -5 0 -10 7 -10 15 0 8 6
15 14 15 8 0 17 4 20 8 2 4 -10 6 -29 4 -38 -5 -52 10 -30 31 19 20 19 43 0
51 -19 7 -19 21 1 40 12 12 12 16 2 16 -10 0 -9 3 2 10 8 5 12 11 9 14 -3 3
-17 -7 -32 -22z"/>
<path d="M2074 1923 c2 -12 -1 -24 -8 -27 -6 -3 3 -4 21 -3 30 1 63 -16 63
-34 0 -5 -5 -9 -11 -9 -5 0 -7 5 -4 10 3 6 -3 10 -14 10 -29 0 -26 -13 5 -27
20 -9 26 -9 31 3 3 8 3 20 0 28 -3 8 -3 17 1 19 4 2 1 2 -6 0 -17 -4 -68 23
-76 39 -4 7 -4 3 -2 -9z"/>
<path d="M1205 1908 c-4 -10 -13 -18 -21 -18 -20 0 -17 -39 3 -47 25 -10 52
-40 58 -66 5 -19 2 -26 -17 -31 l-23 -6 23 -20 c13 -11 21 -24 17 -30 -4 -6
-2 -16 3 -23 17 -21 30 -107 22 -139 -7 -21 -6 -28 3 -25 7 2 14 12 16 23 5
27 22 46 38 40 16 -7 16 -3 -2 40 -8 20 -12 40 -9 45 3 5 1 9 -5 9 -5 0 -17
20 -27 45 -16 43 -16 46 1 65 18 19 17 20 -5 20 -13 0 -21 3 -17 6 3 3 2 16
-3 29 -5 13 -5 26 1 32 6 6 4 10 -6 10 -9 0 -15 -10 -15 -26 l0 -26 -20 25
c-22 28 -25 47 -8 52 6 2 9 11 6 19 -5 11 -7 11 -13 -3z"/>
<path d="M1955 1911 c3 -5 -1 -15 -8 -23 -8 -7 -12 -19 -9 -27 3 -8 0 -11 -7
-7 -7 5 -9 1 -5 -8 9 -25 24 -19 24 9 0 18 5 25 19 25 11 0 23 4 26 10 3 6 -1
7 -9 4 -9 -3 -16 -2 -16 4 0 6 6 13 13 15 6 3 2 6 -11 6 -13 1 -21 -3 -17 -8z"/>
<path d="M1340 1901 c0 -5 12 -11 27 -14 26 -5 26 -4 8 9 -22 16 -35 18 -35 5z"/>
<path d="M1334 1848 c3 -28 -3 -28 -36 0 -16 13 -16 11 1 -24 11 -21 17 -43
14 -48 -4 -5 0 -6 7 -1 9 5 10 2 5 -14 -3 -12 -2 -21 4 -21 5 0 11 -21 13 -47
3 -45 4 -47 16 -25 11 19 11 28 -2 54 -19 38 -20 42 -3 35 7 -3 19 4 25 14 11
18 10 19 -12 13 -38 -9 -51 5 -26 28 12 11 18 23 12 27 -5 3 -12 13 -16 21 -3
8 -4 3 -2 -12z"/>
<path d="M1380 1840 c11 -11 26 -20 34 -20 14 0 86 -190 86 -228 0 -26 -25
-29 -39 -4 -6 9 -11 13 -11 7 0 -5 -4 -4 -9 3 -7 11 -9 10 -14 -3 -4 -9 -3
-14 1 -11 4 2 14 1 20 -3 10 -6 9 -11 -3 -21 -12 -10 -15 -10 -15 0 0 10 -3
10 -15 0 -11 -9 -18 -10 -28 -1 -18 14 -30 2 -16 -16 14 -17 27 -16 61 1 20
11 28 11 32 3 3 -9 5 -8 5 1 2 24 39 12 50 -15 l11 -28 -5 30 c-11 72 -15 88
-25 121 -22 65 10 55 63 -20 20 -27 38 -43 41 -37 9 13 -17 53 -70 112 -23 25
-45 56 -49 69 -6 18 -9 20 -16 9 -7 -11 -10 -9 -15 9 -4 12 -17 25 -29 28 -13
3 -26 12 -29 20 -3 8 -12 14 -21 14 -12 0 -11 -4 5 -20z"/>
<path d="M996 1825 c4 -16 11 -38 15 -47 5 -9 9 -25 9 -35 -1 -15 -4 -14 -23
7 -12 14 -21 23 -20 21 2 -2 -5 -10 -15 -18 -9 -8 -11 -11 -4 -8 7 4 22 -1 33
-11 23 -20 25 -39 4 -30 -8 3 -15 1 -15 -5 0 -6 14 -8 36 -5 32 6 34 5 20 -10
-19 -18 -20 -30 -4 -40 7 -4 8 -3 4 4 -4 7 -3 12 2 12 6 0 16 -22 23 -50 7
-27 15 -48 17 -46 6 7 -25 149 -48 212 -22 65 -46 98 -34 49z"/>
<path d="M1892 1831 c-11 -7 -11 -11 2 -24 19 -19 20 -33 4 -44 -7 -4 -14 -15
-14 -23 -1 -8 -23 -60 -48 -115 -42 -91 -40 -101 6 -34 13 19 17 20 17 7 1 -9
-3 -19 -9 -23 -5 -3 -6 -13 -3 -23 7 -16 27 40 40 113 3 16 12 35 19 43 8 7
14 23 14 36 0 12 5 27 12 34 9 9 9 12 0 12 -7 0 -12 7 -12 15 0 8 -5 15 -11
15 -5 0 -7 5 -4 10 7 12 4 12 -13 1z"/>
<path d="M1970 1825 c-7 -8 -9 -15 -5 -15 4 0 3 -6 -2 -12 -6 -7 -13 -22 -17
-33 -4 -13 5 -7 23 15 17 19 26 37 20 38 -5 2 -7 8 -3 13 9 15 -2 10 -16 -6z"/>
<path d="M2083 1823 c-13 -3 -20 -10 -17 -18 3 -7 1 -16 -5 -20 -14 -8 -14
-55 -1 -55 6 0 10 6 9 13 -1 6 4 24 11 40 10 20 18 26 33 21 13 -4 18 -2 15 7
-5 15 -15 18 -45 12z"/>
<path d="M1190 1791 c0 -24 18 -37 32 -23 8 8 6 15 -5 26 -21 21 -27 20 -27
-3z"/>
<path d="M1400 1796 c0 -8 5 -18 10 -21 6 -3 10 1 10 9 0 8 -4 18 -10 21 -5 3
-10 -1 -10 -9z"/>
<path d="M1846 1787 c1 -12 3 -24 3 -27 2 -6 21 23 21 31 0 4 -6 9 -13 12 -9
3 -13 -2 -11 -16z"/>
<path d="M1782 1783 c-10 -11 -9 -13 7 -13 11 0 21 -6 24 -12 2 -7 7 -11 10
-8 3 3 -2 14 -12 26 -14 17 -19 19 -29 7z"/>
<path d="M2115 1754 c-9 -50 -1 -52 12 -4 5 22 7 40 3 40 -4 0 -11 -16 -15
-36z"/>
<path d="M103 1695 c0 -38 2 -53 4 -32 2 20 2 52 0 70 -2 17 -4 1 -4 -38z"/>
<path d="M1160 1733 c0 -6 40 -43 47 -43 2 0 -2 9 -9 20 -12 19 -38 35 -38 23z"/>
<path d="M1385 1723 c2 -10 4 -19 4 -21 1 -1 7 3 15 10 10 9 11 15 2 20 -18
12 -24 9 -21 -9z"/>
<path d="M1975 1710 c-10 -11 -13 -20 -8 -20 6 0 13 7 17 15 6 17 36 21 36 4
0 -5 -4 -7 -10 -4 -5 3 -10 1 -10 -5 0 -7 6 -10 13 -7 17 5 15 31 -4 35 -8 1
-24 -6 -34 -18z"/>
<path d="M2082 1725 c1 -5 -3 -20 -10 -33 -14 -25 -8 -44 12 -36 11 4 11 -4 2
-45 -11 -51 -26 -78 -26 -48 0 18 -15 23 -25 8 -7 -12 25 -30 43 -24 6 3 12
14 12 25 0 13 5 18 14 15 8 -3 17 0 20 8 3 9 0 12 -9 9 -12 -5 -13 3 -9 43 4
35 1 53 -10 68 -9 11 -15 16 -14 10z"/>
<path d="M2131 1704 c-12 -27 -7 -64 9 -64 5 0 10 -8 12 -17 3 -15 5 -14 10 5
4 16 2 22 -9 22 -11 0 -14 6 -9 23 13 44 15 57 7 57 -4 0 -13 -12 -20 -26z"/>
<path d="M181 1708 c-1 -22 -51 -139 -68 -159 -7 -9 -10 -18 -7 -22 3 -3 1
-45 -5 -92 -15 -107 -7 -125 8 -23 19 120 30 156 62 208 26 42 29 54 21 77 -6
16 -11 21 -11 11z"/>
<path d="M1444 1691 c3 -4 10 -21 16 -36 6 -15 13 -26 15 -23 8 8 -16 68 -27
68 -5 0 -7 -4 -4 -9z"/>
<path d="M1724 1685 c-7 -18 4 -51 13 -41 3 3 14 -1 23 -9 14 -13 16 -12 17 5
1 11 -3 23 -9 26 -7 5 -8 2 -3 -6 6 -10 4 -12 -9 -7 -10 4 -19 7 -21 7 -2 0
-1 9 2 20 6 23 -5 27 -13 5z"/>
<path d="M753 1636 c4 -22 11 -44 16 -49 6 -6 6 7 0 34 -13 56 -24 66 -16 15z"/>
<path d="M2000 1630 c0 -5 9 -14 20 -20 16 -8 18 -8 14 4 -6 17 -34 30 -34 16z"/>
<path d="M1982 1585 c2 -49 9 -65 18 -39 4 10 4 24 0 29 -4 6 -10 19 -13 30
-3 11 -5 2 -5 -20z"/>
<path d="M1735 1590 c-3 -5 -1 -10 5 -10 6 0 8 -4 5 -10 -3 -5 -1 -10 6 -10 8
0 9 -11 4 -36 -4 -23 -3 -34 4 -30 5 3 11 0 14 -6 3 -7 3 3 2 24 -2 20 -8 45
-14 56 -6 11 -7 22 -4 26 3 3 1 6 -5 6 -6 0 -14 -4 -17 -10z"/>
<path d="M2144 1576 c-3 -8 -4 -23 -2 -33 3 -11 6 -6 9 15 6 34 2 42 -7 18z"/>
<path d="M1000 1550 c0 -5 -10 -10 -22 -10 -27 0 -13 -15 22 -25 19 -5 21 -4
10 4 -8 6 -10 11 -4 11 7 0 14 7 18 15 3 9 0 15 -9 15 -8 0 -15 -4 -15 -10z"/>
<path d="M913 1526 c15 -14 52 -33 82 -42 30 -8 55 -20 55 -25 0 -26 -94 6
-140 47 -23 21 -41 31 -45 24 -3 -5 17 -24 44 -42 28 -17 51 -34 51 -38 0 -10
-53 -45 -62 -42 -5 1 -8 -2 -8 -8 0 -5 -3 -9 -7 -9 -28 5 -33 -3 -12 -20 13
-10 30 -16 37 -13 11 4 13 0 7 -16 -8 -26 0 -28 21 -7 14 13 14 16 0 21 -19 7
-21 25 -5 41 16 16 39 4 39 -21 1 -21 1 -21 13 2 9 16 16 19 24 11 8 -8 11 -6
10 7 -1 11 -10 21 -20 24 -10 3 -17 10 -15 15 3 10 51 10 96 0 12 -3 22 -1 22
5 0 5 -10 11 -22 11 -19 1 -17 3 7 9 l30 8 -31 1 c-16 0 -39 8 -50 16 -10 8
-29 15 -42 15 -12 0 -41 12 -65 26 l-42 25 28 -25z"/>
<path d="M1073 1535 c-8 -9 -7 -16 8 -29 19 -15 19 -15 13 11 -4 16 -7 29 -8
29 -1 1 -6 -4 -13 -11z"/>
<path d="M1850 1500 c0 -5 6 -10 13 -10 8 0 7 -4 -3 -10 -8 -5 -10 -10 -4 -10
16 0 23 10 17 26 -6 16 -23 19 -23 4z"/>
<path d="M2135 1503 c-11 -3 -24 -9 -29 -14 -5 -5 5 -4 24 1 51 15 55 25 5 13z"/>
<path d="M2170 1480 c-13 -9 -13 -10 0 -10 8 0 22 5 30 10 13 9 13 10 0 10 -8
0 -22 -5 -30 -10z"/>
<path d="M1360 1470 c0 -5 4 -10 10 -10 5 0 7 -6 4 -14 -6 -15 11 -32 19 -19
7 12 -11 53 -23 53 -5 0 -10 -4 -10 -10z"/>
<path d="M2103 1463 c9 -2 25 -2 35 0 9 3 1 5 -18 5 -19 0 -27 -2 -17 -5z"/>
<path d="M2220 1459 c0 -5 -4 -8 -9 -5 -5 3 -12 -1 -15 -9 -4 -13 -2 -14 14
-5 18 10 28 30 15 30 -3 0 -5 -5 -5 -11z"/>
<path d="M2764 1406 c-3 -21 -4 -39 -1 -42 2 -3 8 11 11 32 4 20 5 38 2 41 -2
3 -8 -11 -12 -31z"/>
<path d="M2111 1364 c-16 -27 -26 -34 -41 -29 -15 5 -18 3 -14 -9 6 -16 16
-14 44 10 8 7 19 14 25 16 5 2 9 8 7 15 -1 7 10 15 25 19 47 10 49 12 11 13
-31 1 -39 -4 -57 -35z"/>
<path d="M1584 1366 c-3 -14 -10 -23 -15 -20 -5 3 -9 -13 -9 -35 0 -23 2 -41
4 -41 7 0 38 112 32 117 -3 3 -8 -6 -12 -21z"/>
<path d="M1945 1348 c-40 -56 -49 -80 -33 -89 7 -5 14 -13 14 -19 1 -5 2 -14
3 -19 1 -8 51 -11 51 -3 0 2 -8 16 -19 30 -18 27 -18 27 10 82 l29 55 -2 -85
c-3 -97 2 -150 15 -150 4 0 5 16 1 35 -5 28 -3 35 9 35 9 0 18 -4 21 -9 8 -12
30 -8 49 8 12 9 21 10 34 2 10 -6 15 -11 11 -12 -5 -1 -12 -3 -18 -4 -5 -1
-13 -3 -17 -4 -5 -1 -1 -6 7 -11 12 -8 12 -12 2 -18 -9 -6 -7 -14 9 -31 24
-26 17 -41 -11 -23 -33 20 -37 13 -5 -8 37 -25 53 -25 51 -2 -1 13 6 17 27 15
15 -1 25 2 22 8 -4 5 -12 9 -18 9 -7 1 -23 10 -37 21 -23 20 -24 22 -7 34 11
8 14 16 8 19 -6 4 -8 13 -4 21 3 8 0 15 -7 15 -6 0 -8 -5 -4 -11 4 -7 1 -10
-7 -7 -13 5 -16 18 -8 47 2 7 -3 16 -11 18 -13 4 -13 3 0 -6 12 -8 7 -11 -21
-11 -33 0 -37 3 -44 33 -5 17 -9 37 -9 42 -1 14 -28 34 -46 34 -8 1 -28 -18
-45 -41z m146 -94 c10 -13 10 -17 -2 -25 -20 -13 -34 -6 -37 19 -4 26 19 30
39 6z"/>
<path d="M2190 1354 c-14 -7 -19 -14 -11 -14 7 0 11 -6 8 -12 -3 -9 7 -14 29
-15 19 -1 34 3 34 8 0 5 -9 9 -20 9 -11 0 -20 5 -20 10 0 6 7 10 16 10 8 0 12
5 9 10 -8 12 -14 12 -45 -6z"/>
<path d="M2751 1323 c-1 -12 -5 -24 -10 -27 -4 -3 -71 -8 -147 -11 -76 -3
-154 -8 -172 -11 -27 -4 -34 -1 -41 18 -8 21 -8 21 -13 -5 l-5 -28 181 7 c99
4 188 8 196 10 8 1 70 3 138 3 67 1 122 5 122 10 0 5 -53 8 -117 7 -117 -1
-117 -1 -124 24 -6 23 -7 23 -8 3z"/>
<path d="M899 1293 c-3 -17 -4 -113 -1 -113 1 0 7 12 13 27 7 20 6 28 -3 35
-10 6 -10 8 0 8 6 0 12 11 12 25 0 22 -18 37 -21 18z"/>
<path d="M1675 1251 c-7 -12 12 -24 25 -16 6 3 10 12 9 18 0 9 -2 9 -6 0 -2
-7 -9 -13 -14 -13 -6 0 -7 5 -4 10 3 6 4 10 1 10 -3 0 -7 -4 -11 -9z"/>
<path d="M35 1240 l-40 -7 43 -2 c23 0 42 4 42 9 0 6 -1 9 -2 9 -2 -1 -21 -5
-43 -9z"/>
<path d="M1401 1092 c-6 -11 -23 -23 -38 -25 -20 -3 -17 -4 13 -6 43 -1 60 14
44 39 -6 10 -11 8 -19 -8z"/>
<path d="M1010 1090 c-12 -8 -12 -10 2 -15 9 -4 25 -2 36 4 21 11 42 -2 42
-26 0 -7 6 -13 14 -13 11 0 12 5 3 24 -16 33 -65 47 -97 26z"/>
<path d="M1460 1084 l-25 -15 25 7 c28 7 35 12 29 18 -2 2 -15 -2 -29 -10z"/>
<path d="M1645 1090 c-8 -13 -1 -24 14 -19 6 3 7 10 2 18 -6 10 -10 10 -16 1z"/>
<path d="M1507 1073 c-4 -3 -7 -17 -7 -31 0 -17 -4 -23 -15 -18 -8 3 -15 0
-15 -7 0 -7 15 -12 39 -12 42 0 54 6 57 30 3 18 -7 19 -25 3 -11 -10 -13 -10
-7 0 4 6 2 12 -4 12 -7 0 -10 7 -6 15 5 15 -5 20 -17 8z"/>
<path d="M986 1049 c2 -4 -3 -9 -11 -13 -8 -3 -15 -10 -15 -16 0 -16 27 -12
34 5 3 8 12 15 20 15 8 0 17 4 20 9 3 4 -8 8 -23 7 -16 -1 -27 -4 -25 -7z"/>
<path d="M2002 1035 c2 -3 17 -6 31 -7 15 -1 27 -6 27 -11 0 -4 5 -5 10 -2 19
12 -1 25 -37 25 -20 0 -34 -2 -31 -5z"/>
<path d="M1041 1005 c-13 -14 -27 -25 -32 -25 -5 0 -9 -5 -9 -11 0 -5 5 -7 10
-4 6 3 10 1 10 -4 0 -6 -11 -11 -23 -11 -13 0 -32 -9 -43 -21 -17 -19 -19 -19
-26 -2 -7 15 -8 14 -4 -4 3 -15 -1 -23 -10 -23 -8 0 -11 6 -8 15 4 9 0 15 -10
15 -22 0 -20 -17 4 -32 11 -7 20 -19 20 -26 0 -7 7 -15 15 -18 8 -4 12 -10 9
-15 -3 -5 2 -9 10 -9 10 0 16 -9 16 -26 0 -14 -4 -23 -10 -19 -22 14 -8 -17
22 -48 20 -20 29 -25 25 -13 -5 13 -3 17 7 13 10 -4 13 -1 9 8 -4 11 -10 12
-23 5 -13 -7 -21 -7 -25 0 -10 16 5 52 20 47 7 -3 12 0 12 6 -2 32 27 76 63
96 43 24 46 31 30 62 -9 16 -7 21 12 29 l23 9 -24 0 c-13 1 -29 8 -35 16 -9
12 -14 11 -35 -10z m39 -15 c0 -5 -12 -10 -27 -10 -22 0 -25 2 -13 10 20 13
40 13 40 0z m4 -36 c5 -12 0 -15 -21 -12 -14 2 -28 9 -31 16 -6 18 45 15 52
-4z m-68 -25 c3 -6 17 -8 30 -5 34 9 30 -11 -7 -33 -17 -10 -30 -22 -29 -25 0
-4 -3 -14 -8 -23 -12 -20 -33 -8 -25 13 5 13 1 15 -15 9 -19 -5 -22 -2 -22 19
0 38 58 73 76 45z"/>
<path d="M1835 1008 c-20 -21 -20 -21 0 -10 11 6 27 16 35 22 13 9 13 10 0 9
-8 0 -24 -10 -35 -21z"/>
<path d="M2026 985 c3 -16 8 -31 13 -35 4 -3 5 -14 0 -25 -4 -11 -8 -16 -8
-11 -1 5 -8 3 -16 -4 -10 -8 -12 -17 -5 -30 6 -11 5 -21 -3 -30 -10 -12 -9
-12 4 -2 9 6 19 9 22 5 4 -3 7 -1 7 5 0 7 -4 12 -8 12 -4 0 -8 8 -8 19 0 12 6
17 18 13 10 -2 18 1 18 7 0 6 14 11 30 11 17 0 30 5 30 10 0 6 -13 10 -30 10
-25 0 -30 4 -30 25 0 14 5 25 10 25 6 0 9 -5 8 -11 -2 -6 7 -15 20 -20 13 -5
22 -5 22 1 0 6 -7 10 -16 10 -11 0 -14 5 -10 16 5 12 0 15 -22 12 -18 -2 -26
-8 -24 -18 4 -19 -14 -1 -21 20 -2 8 -3 2 -1 -15z"/>
<path d="M2110 1005 c0 -8 9 -10 25 -7 36 6 38 17 4 18 -17 1 -29 -4 -29 -11z"/>
<path d="M2183 986 c9 -7 17 -22 17 -33 0 -11 8 -27 17 -34 15 -12 16 -12 9 6
-4 11 -9 25 -10 30 -8 29 -20 45 -35 45 -14 -1 -14 -2 2 -14z"/>
<path d="M935 980 c-3 -5 -3 -10 2 -10 4 0 1 -5 -7 -10 -8 -5 -10 -10 -5 -10
14 0 30 13 33 28 2 14 -14 16 -23 2z"/>
<path d="M1880 975 c0 -9 -6 -12 -15 -9 -10 4 -15 0 -15 -11 0 -9 -3 -14 -8
-11 -4 2 -16 -2 -27 -10 -27 -20 -11 -17 40 6 31 14 43 25 39 35 -8 19 -14 19
-14 0z"/>
<path d="M1980 965 c-19 -36 -8 -40 12 -4 9 16 14 29 9 29 -4 0 -14 -11 -21
-25z"/>
<path d="M1389 960 c13 -11 27 -20 32 -20 18 0 8 10 -23 25 l-33 16 24 -21z"/>
<path d="M1508 953 c-4 -14 0 -24 8 -27 15 -6 16 -1 5 28 -7 19 -8 19 -13 -1z"/>
<path d="M1121 937 c2 -1 11 -8 20 -15 13 -9 16 -9 16 3 0 8 -9 15 -20 15 -11
0 -18 -1 -16 -3z"/>
<path d="M1110 902 c0 -5 -12 -15 -26 -22 -23 -13 -23 -15 -7 -21 25 -9 59 1
41 12 -9 6 -6 9 11 9 20 0 21 2 11 15 -14 16 -30 20 -30 7z"/>
<path d="M2160 895 c0 -19 -20 -24 -53 -12 -15 5 -31 7 -34 4 -3 -3 8 -9 23
-13 34 -8 46 -22 38 -46 -3 -10 0 -18 6 -18 6 0 8 5 4 12 -5 8 -2 9 9 5 13 -5
17 -1 17 19 0 13 7 27 15 30 21 8 19 21 -5 27 -13 3 -20 0 -20 -8z"/>
<path d="M1745 891 c-36 -6 -37 -7 -14 -12 15 -3 40 0 55 7 31 13 21 15 -41 5z"/>
<path d="M23 815 c0 -27 2 -38 4 -22 2 15 2 37 0 50 -2 12 -4 0 -4 -28z"/>
<path d="M443 765 c0 -38 2 -53 4 -32 2 20 2 52 0 70 -2 17 -4 1 -4 -38z"/>
<path d="M2034 818 c-14 -22 -15 -50 -2 -45 7 2 12 14 10 25 -4 25 1 26 29 12
13 -7 25 -8 37 -1 15 9 15 10 -3 10 -11 -1 -30 2 -41 6 -14 4 -25 2 -30 -7z"/>
<path d="M1128 809 c-2 -5 -10 -11 -18 -12 -8 -2 -22 -7 -30 -12 -8 -5 -23 -8
-34 -6 -11 1 -16 -2 -12 -8 4 -6 14 -11 22 -11 15 0 94 46 94 55 0 10 -18 5
-22 -6z"/>
<path d="M1190 812 c0 -5 7 -13 16 -16 10 -4 14 -1 12 6 -5 15 -28 23 -28 10z"/>
<path d="M2183 793 c-19 -7 -16 -21 10 -34 20 -11 21 -11 9 4 -8 9 -11 21 -7
27 7 11 6 11 -12 3z"/>
<path d="M2075 781 c-2 -4 2 -16 8 -27 12 -21 12 -21 31 -3 18 17 18 19 2 19
-9 0 -15 4 -12 8 3 5 -2 9 -10 9 -8 0 -17 -3 -19 -6z"/>
<path d="M1122 768 c2 -7 -3 -12 -9 -10 -7 1 -13 -3 -13 -9 0 -5 -4 -8 -9 -4
-5 3 -12 1 -16 -5 -3 -5 3 -10 14 -10 11 0 23 5 26 10 4 6 11 8 16 5 5 -4 9 1
9 9 0 8 -5 18 -10 21 -6 4 -9 1 -8 -7z"/>
<path d="M950 721 c0 -16 141 -152 151 -145 5 3 -7 18 -28 33 -21 15 -54 48
-73 74 -34 45 -50 57 -50 38z"/>
<path d="M1525 708 c-22 -6 -62 -11 -90 -13 -27 -1 -58 -3 -67 -3 -10 -1 -32
-15 -51 -32 -24 -20 -37 -26 -44 -19 -19 19 -48 5 -53 -26 -4 -17 -11 -29 -18
-28 -13 3 -17 -23 -4 -30 11 -8 52 29 52 47 0 9 -4 16 -10 16 -5 0 -10 5 -10
10 0 6 9 10 21 10 15 0 19 -4 15 -16 -3 -9 -6 -29 -6 -45 0 -16 -5 -28 -11
-26 -6 1 -14 -4 -17 -12 -3 -9 0 -12 10 -9 10 4 14 -5 15 -38 l2 -44 -45 44
c-24 24 -44 41 -44 38 0 -3 -12 5 -27 18 -16 14 -9 5 15 -19 44 -45 46 -59 18
-106 -28 -44 -27 -85 3 -179 16 -50 37 -126 47 -168 14 -64 21 -78 36 -78 14
0 18 5 14 18 -2 9 -19 75 -36 147 -20 83 -38 136 -50 146 -13 11 -15 20 -8 33
5 10 8 26 5 36 -3 11 1 24 9 31 8 6 14 20 14 30 0 25 9 24 39 -5 30 -28 70
-40 90 -27 11 7 10 14 -5 37 -10 16 -29 39 -43 50 l-25 21 19 42 c10 23 35 57
56 76 34 30 41 33 71 25 18 -4 51 -11 73 -14 31 -5 36 -4 22 4 -23 15 -11 33
18 26 13 -3 33 -2 46 2 12 5 38 5 58 1 147 -32 193 -38 247 -36 49 2 60 5 56
16 -4 10 4 8 25 -7 41 -29 49 -40 67 -92 23 -67 20 -103 -11 -141 -27 -31 -30
-50 -24 -129 1 -8 -2 -49 -6 -90 -3 -41 -6 -88 -5 -105 1 -16 2 -45 3 -62 1
-25 6 -33 19 -33 16 0 18 10 17 93 -1 186 8 285 29 308 16 17 19 37 19 110 1
75 4 91 19 102 14 10 17 21 12 40 -5 21 -3 27 10 27 10 0 14 5 10 15 -3 10 1
15 11 15 9 0 14 3 10 6 -10 10 -58 -5 -52 -16 3 -6 0 -10 -8 -10 -12 0 -13 -7
-7 -35 5 -23 4 -37 -3 -42 -6 -4 -13 -1 -15 5 -2 6 -11 8 -19 5 -12 -5 -15 -2
-10 10 4 11 1 17 -9 17 -8 0 -12 5 -9 10 4 6 3 9 -2 8 -13 -3 -53 13 -53 21 0
4 -26 4 -57 -1 -32 -5 -74 -7 -93 -4 -65 10 -105 17 -153 26 -56 12 -68 11
-122 -2z"/>
<path d="M1560 631 c42 -9 132 -56 123 -65 -3 -3 -1 -6 5 -6 6 0 14 5 17 10 3
6 2 10 -3 10 -4 0 -17 8 -28 18 -25 22 -83 42 -120 41 -28 -1 -28 -2 6 -8z"/>
<path d="M2 555 c-1 -33 3 -87 8 -120 6 -33 13 -113 17 -178 5 -104 4 -119
-12 -137 -19 -21 -7 -28 13 -8 9 9 15 8 28 -8 15 -19 16 -19 9 1 -4 11 -13 81
-20 155 -8 74 -18 164 -24 200 -6 36 -12 85 -14 110 -3 38 -4 36 -5 -15z"/>
<path d="M1540 600 c0 -20 39 -49 81 -60 21 -6 40 -14 43 -19 7 -10 56 -2 74
12 14 11 16 37 2 37 -5 0 -9 -6 -7 -12 2 -15 -45 -23 -71 -13 -10 3 -18 6 -20
5 -5 -1 -68 34 -84 48 -13 11 -18 12 -18 2z"/>
<path d="M1948 603 c-20 -5 -23 -18 -8 -28 6 -3 10 -1 10 5 0 6 4 9 8 6 5 -3
9 1 9 9 0 8 -1 14 -1 14 -1 -1 -9 -3 -18 -6z"/>
<path d="M1957 563 c-3 -5 -8 -24 -12 -43 -9 -45 -45 -110 -61 -110 -7 0 -26
-13 -42 -30 -17 -16 -37 -30 -46 -30 -9 0 -13 -6 -10 -13 3 -8 -3 -20 -12 -28
-16 -12 -17 -12 -11 5 6 14 4 17 -9 12 -8 -3 -18 -6 -20 -6 -2 0 -4 -7 -4 -16
0 -14 -8 -16 -41 -11 -47 6 -59 14 -39 27 8 5 11 12 8 15 -10 10 -28 -4 -28
-21 0 -12 -3 -12 -24 1 -22 15 -24 14 -29 -5 -7 -25 -52 -27 -87 -3 -30 21
-57 26 -65 13 -3 -6 -2 -10 4 -10 5 0 12 -9 16 -19 8 -25 39 -32 95 -21 27 5
49 5 55 -1 12 -12 65 -12 65 1 0 6 5 10 11 10 6 0 9 -7 5 -15 -4 -12 3 -15 35
-15 26 0 42 5 45 15 4 8 10 15 16 15 5 0 6 -4 3 -10 -3 -5 -1 -10 4 -10 6 0
11 9 11 19 0 23 121 132 128 113 2 -6 11 -12 20 -12 13 0 14 2 3 9 -9 6 -10
11 -2 15 6 4 11 13 11 19 0 7 -4 6 -10 -3 -15 -23 -12 0 7 53 9 26 23 47 29
47 7 0 15 4 18 9 3 5 -2 8 -11 7 -9 0 -18 5 -21 13 -3 9 0 11 8 6 9 -5 11 -4
6 3 -8 14 -13 15 -19 5z"/>
<path d="M1742 493 c-10 -4 -9 -8 3 -17 11 -8 14 -18 8 -33 -8 -20 -10 -21
-48 -7 -121 44 -154 52 -159 38 -4 -10 4 -14 27 -14 47 0 77 -10 77 -26 0 -8
-4 -14 -8 -14 -5 0 -8 -10 -7 -22 1 -16 11 -26 31 -32 16 -4 36 -11 44 -15 20
-9 50 -2 50 12 0 6 10 21 23 35 15 16 17 23 7 20 -10 -2 -14 3 -12 14 4 25
-20 66 -36 61z m-8 -84 c38 -18 21 -39 -29 -39 -68 0 -67 13 2 49 1 1 13 -4
27 -10z"/>
<path d="M1976 491 c-4 -7 -5 -15 -2 -18 3 -3 0 -15 -5 -27 -7 -13 2 -7 23 14
33 34 42 54 14 31 -11 -9 -15 -9 -18 1 -3 9 -6 9 -12 -1z"/>
<path d="M1811 468 c-9 -14 -9 -23 -2 -29 6 -5 9 -6 6 -3 -2 4 0 15 6 26 14
27 6 32 -10 6z"/>
<path d="M1425 423 c22 -15 45 -17 45 -3 0 6 -3 10 -7 11 -59 6 -57 7 -38 -8z"/>
<path d="M1583 419 c-5 -19 -11 -21 -54 -17 -40 4 -47 3 -38 -8 12 -15 9 -17
-36 -15 -27 1 -28 0 -11 -10 11 -7 34 -12 52 -11 18 1 36 -3 39 -8 3 -6 13
-10 22 -10 15 0 14 2 0 18 -25 28 -21 32 28 32 25 0 45 5 45 10 0 6 -4 10 -10
10 -5 0 -10 7 -10 15 0 23 -21 18 -27 -6z"/>
<path d="M2949 266 c-2 -2 -74 -7 -159 -11 -85 -4 -158 -9 -162 -11 -4 -3 -41
-6 -84 -8 -42 -3 -82 -10 -88 -16 -12 -13 -17 -13 219 10 55 5 152 13 215 17
70 4 107 9 95 14 -24 9 -30 10 -36 5z"/>
<path d="M1344 178 c-3 -5 -11 -7 -18 -5 -6 3 -20 -1 -29 -8 -15 -10 -3 -12
67 -11 46 0 87 4 90 8 3 5 3 6 0 4 -3 -2 -27 2 -55 9 -31 8 -51 10 -55 3z"/>
<path d="M2458 135 c2 -14 6 -25 8 -25 2 0 4 11 4 25 0 14 -4 25 -9 25 -4 0
-6 -11 -3 -25z"/>
<path d="M90 28 c0 -16 5 -28 10 -28 13 0 13 20 0 40 -8 12 -10 9 -10 -12z"/>
</g>
</svg>
